<?xml version="1.0" standalone="no"?>
<!DOCTYPE svg PUBLIC "-//W3C//DTD SVG 1.1//EN" "http://www.w3.org/Graphics/SVG/1.1/DTD/svg11.dtd" >
<svg xmlns="http://www.w3.org/2000/svg">
<metadata>Generated by IcoMoon</metadata>
<defs>
<font id="icomoon" horiz-adv-x="1024">
<font-face units-per-em="1024" ascent="960" descent="-64" />
<missing-glyph horiz-adv-x="1024" />
<glyph unicode="&#x20;" horiz-adv-x="512" d="" />
<glyph unicode="&#xe900;" glyph-name="menu" d="M128 204.8h768v85.333h-768v-85.333zM128 418.133h768v85.333h-768v-85.333zM128 716.8v-85.333h768v85.333h-768z" />
<glyph unicode="&#xe901;" glyph-name="search" d="M661.333 375.467h-34.133l-12.8 10.667c42.667 49.067 66.133 110.933 66.133 181.333 0 153.6-123.733 277.333-277.333 277.333s-275.2-123.733-275.2-277.333 123.733-277.333 277.333-277.333c68.267 0 132.267 25.6 181.333 66.133l10.667-12.8v-32l213.333-213.333 64 64-213.333 213.333zM405.333 375.467c-106.667 0-192 85.333-192 192s85.333 192 192 192 192-85.333 192-192-85.333-192-192-192z" />
<glyph unicode="&#xe902;" glyph-name="check" d="M384 283.733l-177.067 177.067-59.733-59.733 236.8-238.933 512 512-59.733 59.733-452.267-450.133z" />
<glyph unicode="&#xe903;" glyph-name="close" d="M810.667 699.733l-59.733 59.733-238.933-238.933-238.933 238.933-59.733-59.733 238.933-238.933-238.933-238.933 59.733-59.733 238.933 238.933 238.933-238.933 59.733 59.733-238.933 238.933 238.933 238.933z" />
<glyph unicode="&#xe904;" glyph-name="chevron-right" d="M366.933 264.533l196.267 196.267-196.267 196.267 59.733 59.733 256-256-256-256-59.733 59.733z" />
<glyph unicode="&#xe905;" glyph-name="chevron-left" d="M657.067 264.533l-194.133 196.267 196.267 196.267-61.867 59.733-256-256 256-256 59.733 59.733z" />
<glyph unicode="&#xe906;" glyph-name="chevron-down" d="M315.733 605.867l196.267-196.267 196.267 196.267 59.733-59.733-256-256-256 256 59.733 59.733z" />
<glyph unicode="&#xe907;" glyph-name="chevron-up" d="M315.733 315.733l196.267 196.267 196.267-196.267 59.733 59.733-256 256-256-256 59.733-59.733z" />
<glyph unicode="&#xe908;" glyph-name="video-play-outline" d="M426.667 268.8l256 192-256 192v-384zM512 887.467c-234.667 0-426.667-192-426.667-426.667s192-426.667 426.667-426.667 426.667 192 426.667 426.667-192 426.667-426.667 426.667zM512 119.467c-187.733 0-341.333 153.6-341.333 341.333s153.6 341.333 341.333 341.333 341.333-153.6 341.333-341.333-153.6-341.333-341.333-341.333z" />
<glyph unicode="&#xe909;" glyph-name="arrow-up" d="M170.667 460.8l59.733-59.733 238.933 236.8v-518.4h85.333v518.4l238.933-238.933 59.733 61.867-341.333 341.333-341.333-341.333z" />
<glyph unicode="&#xe90a;" glyph-name="anchors" d="M853.333 219.733h-680.533v76.8h680.533v-76.8zM486.4 482.133l-76.8-76.8h443.733v76.8h-366.933zM437.333 533.333l-179.2 179.2-53.333-53.333 123.733-123.733-138.667-138.667 53.333-53.333 194.133 189.867zM405.333 667.733l76.8-76.8h371.2v76.8h-448z" />
<glyph unicode="&#xe90b;" glyph-name="shopping-cart" d="M384 119.467c0-46.933-38.4-85.333-85.333-85.333s-85.333 38.4-85.333 85.333 38.4 85.333 85.333 85.333 85.333-38.4 85.333-85.333zM725.333 204.8c-46.933 0-85.333-38.4-85.333-85.333s38.4-85.333 85.333-85.333 85.333 38.4 85.333 85.333-38.4 85.333-85.333 85.333zM315.733 332.8h494.933v-85.333h-512c-46.933 0-85.333 38.4-85.333 85.333 0 14.933 4.267 29.867 10.667 40.533l57.6 104.533-153.6 324.267h-85.333v85.333h138.667l40.533-85.333h605.867l51.2-85.333-140.8-253.867c-14.933-25.6-42.667-44.8-74.667-44.8h-317.867l-38.4-70.4-2.133-4.267c0-6.4 6.4-10.667 10.667-10.667zM358.4 514.133l6.4-10.667h298.667l117.333 213.333h-518.4l96-202.667z" />
<glyph unicode="&#xe90c;" glyph-name="facebook" d="M721.067 731.733h-76.8c-59.733 0-70.4-27.733-70.4-70.4v-91.733h142.933l-19.2-142.933h-123.733v-369.067h-149.333v366.933h-123.733v142.933h125.867v106.667c0 123.733 74.667 189.867 185.6 189.867 53.333 0 98.133-4.267 110.933-6.4v-125.867z" />
<glyph unicode="&#xe90d;" glyph-name="twitter" d="M851.2 618.667c0-8.533 0-14.933 0-23.467 0-230.4-174.933-494.933-494.933-494.933-98.133 0-189.867 29.867-266.667 78.933 12.8-2.133 27.733-2.133 40.533-2.133 81.067 0 157.867 27.733 215.467 74.667-76.8 2.133-140.8 51.2-162.133 121.6 10.667-2.133 21.333-2.133 32-2.133 14.933 0 32 2.133 46.933 6.4-78.933 17.067-140.8 87.467-140.8 170.667 0 0 0 2.133 0 2.133 23.467-12.8 51.2-21.333 78.933-21.333-46.933 32-76.8 85.333-76.8 145.067 0 32 8.533 61.867 23.467 87.467 85.333-104.533 215.467-174.933 358.4-181.333-2.133 12.8-4.267 25.6-4.267 40.533 0 96 78.933 174.933 174.933 174.933 51.2 0 96-21.333 128-55.467 40.533 8.533 76.8 21.333 110.933 42.667-12.8-40.533-40.533-74.667-76.8-96 36.267 4.267 68.267 12.8 100.267 27.733-23.467-40.533-53.333-70.4-87.467-96z" />
<glyph unicode="&#xe90e;" glyph-name="youtube" d="M433.067 354.133v217.6l209.067-108.8-209.067-108.8zM514.133 149.333c-8.533 0-204.8 2.133-266.667 8.533h-2.133c-2.133 0-4.267 0-8.533 2.133-21.333 2.133-61.867 8.533-96 42.667-29.867 29.867-38.4 85.333-40.533 96 0 4.267-8.533 66.133-8.533 130.133v59.733c0 64 8.533 125.867 8.533 130.133 2.133 10.667 10.667 66.133 40.533 96 34.133 36.267 74.667 40.533 93.867 42.667h4.267c110.933 8.533 268.8 8.533 275.2 8.533s164.267 0 273.067-8.533h6.4c19.2-2.133 59.733-6.4 93.867-42.667 29.867-29.867 38.4-85.333 40.533-96v0c0-2.133 8.533-66.133 8.533-130.133v-59.733c0-64-8.533-125.867-8.533-130.133-2.133-10.667-10.667-66.133-40.533-96-34.133-36.267-74.667-40.533-93.867-42.667h-4.267c-110.933-10.667-268.8-10.667-275.2-10.667zM256 224c61.867-6.4 256-8.533 258.133-8.533s162.133 0 268.8 8.533h4.267c14.933 2.133 34.133 4.267 51.2 21.333 10.667 10.667 19.2 40.533 21.333 57.6v0c0 0 6.4 59.733 6.4 119.467v59.733c0 57.6-6.4 115.2-6.4 121.6-2.133 17.067-10.667 46.933-21.333 57.6-19.2 19.2-38.4 21.333-51.2 21.333h-6.4c-104.533 8.533-264.533 8.533-266.667 8.533s-162.133 0-268.8-8.533h-4.267c-14.933-2.133-34.133-4.267-51.2-21.333-10.667-10.667-19.2-42.667-21.333-57.6 0 0-6.4-61.867-6.4-119.467v-59.733c0-59.733 6.4-119.467 8.533-121.6 2.133-17.067 10.667-46.933 21.333-57.6 17.067-17.067 38.4-19.2 55.467-21.333 0 2.133 4.267 0 8.533 0z" />
<glyph unicode="&#xe90f;" glyph-name="pinterest" d="M582.4 277.333c-51.2 0-100.267 27.733-117.333 59.733 0 0-27.733-110.933-34.133-132.267-21.333-74.667-81.067-151.467-87.467-157.867-4.267-4.267-10.667-2.133-10.667 2.133-2.133 10.667-17.067 104.533 2.133 183.467 8.533 38.4 61.867 262.4 61.867 262.4s-14.933 29.867-14.933 76.8c0 70.4 40.533 123.733 91.733 123.733 44.8 0 64-32 64-72.533 0-44.8-27.733-108.8-42.667-170.667-12.8-51.2 25.6-91.733 76.8-91.733 91.733 0 151.467 117.333 151.467 256 0 104.533-70.4 183.467-200.533 183.467-145.067 0-236.8-108.8-236.8-230.4 0-42.667 12.8-72.533 32-93.867 8.533-10.667 10.667-14.933 6.4-27.733-2.133-8.533-8.533-29.867-10.667-38.4-2.133-12.8-12.8-17.067-23.467-12.8-66.133 27.733-98.133 102.4-98.133 185.6 0 136.533 115.2 300.8 343.467 300.8 183.467 0 305.067-132.267 305.067-275.2 0-189.867-104.533-330.667-258.133-330.667z" />
<glyph unicode="&#xe910;" glyph-name="share" d="M768 285.867c-32 0-61.867-12.8-83.2-32l-305.067 177.067c2.133 10.667 4.267 19.2 4.267 29.867s-2.133 19.2-4.267 29.867l300.8 174.933c23.467-21.333 53.333-34.133 87.467-34.133 70.4 0 128 57.6 128 128s-57.6 128-128 128-128-57.6-128-128c0-10.667 2.133-19.2 4.267-29.867l-300.8-174.933c-23.467 21.333-53.333 34.133-87.467 34.133-70.4 0-128-57.6-128-128s57.6-128 128-128c34.133 0 64 12.8 87.467 34.133l302.933-177.067c-2.133-8.533-4.267-19.2-4.267-27.733 0-68.267 55.467-123.733 123.733-123.733s123.733 55.467 123.733 123.733-53.333 123.733-121.6 123.733z" />
<glyph unicode="&#xe911;" glyph-name="mail" d="M853.333 802.133h-682.667c-46.933 0-85.333-38.4-85.333-85.333v-512c0-46.933 38.4-85.333 85.333-85.333h682.667c46.933 0 85.333 38.4 85.333 85.333v512c0 46.933-38.4 85.333-85.333 85.333zM853.333 204.8h-682.667v426.667l341.333-213.333 341.333 213.333v-426.667zM512 503.467l-341.333 213.333h682.667l-341.333-213.333z" />
<glyph unicode="&#xe912;" glyph-name="print" d="M810.667 631.467h-597.333c-70.4 0-128-57.6-128-128v-256h170.667v-170.667h512v170.667h170.667v256c0 70.4-57.6 128-128 128zM682.667 162.133h-341.333v213.333h341.333v-213.333zM810.667 460.8c-23.467 0-42.667 19.2-42.667 42.667s19.2 42.667 42.667 42.667 42.667-19.2 42.667-42.667-19.2-42.667-42.667-42.667zM768 844.8h-512v-170.667h512v170.667z" />
<glyph unicode="&#xe913;" glyph-name="chat" d="M853.333 887.467h-682.667c-46.933 0-85.333-38.4-85.333-85.333v-768l170.667 170.667h597.333c46.933 0 85.333 38.4 85.333 85.333v512c0 46.933-38.4 85.333-85.333 85.333zM256 588.8h512v-85.333h-512v85.333zM597.333 375.467h-341.333v85.333h341.333v-85.333zM768 631.467h-512v85.333h512v-85.333z" />
<glyph unicode="&#xe914;" glyph-name="info" d="M512 887.467c-234.667 0-426.667-192-426.667-426.667s192-426.667 426.667-426.667 426.667 192 426.667 426.667-192 426.667-426.667 426.667zM554.667 247.467h-85.333v256h85.333v-256zM554.667 588.8h-85.333v85.333h85.333v-85.333z" />
<glyph unicode="&#xe915;" glyph-name="in-person" d="M810.667 887.467h-597.333c-46.933 0-85.333-38.4-85.333-85.333v-597.333c0-46.933 38.4-85.333 85.333-85.333h170.667l128-128 128 128h170.667c46.933 0 85.333 38.4 85.333 85.333v597.333c0 46.933-38.4 85.333-85.333 85.333zM512 746.667c64 0 115.2-51.2 115.2-115.2s-51.2-115.2-115.2-115.2-115.2 51.2-115.2 115.2 51.2 115.2 115.2 115.2zM768 290.133h-512v38.4c0 85.333 170.667 132.267 256 132.267s256-46.933 256-132.267v-38.4z" />
<glyph unicode="&#xe916;" glyph-name="refresh" d="M753.067 701.867c-61.867 61.867-147.2 100.267-241.067 100.267-187.733 0-341.333-153.6-341.333-341.333s151.467-341.333 341.333-341.333c160 0 292.267 108.8 330.667 256h-89.6c-34.133-100.267-130.133-170.667-241.067-170.667-140.8 0-256 115.2-256 256s115.2 256 256 256c70.4 0 134.4-29.867 179.2-76.8l-136.533-136.533h298.667v298.667l-100.267-100.267z" />
<glyph unicode="&#xe917;" glyph-name="time" d="M512 887.467c-234.667 0-426.667-192-426.667-426.667s189.867-426.667 426.667-426.667c236.8 0 426.667 192 426.667 426.667s-192 426.667-426.667 426.667zM512 119.467c-187.733 0-341.333 153.6-341.333 341.333s153.6 341.333 341.333 341.333 341.333-153.6 341.333-341.333-153.6-341.333-341.333-341.333zM533.333 674.133h-64v-256l224-134.4 32 53.333-192 113.067v224z" />
<glyph unicode="&#xe918;" glyph-name="time-lapse" d="M693.333 642.133c-51.2 49.067-115.2 74.667-181.333 74.667v-256l-181.333-181.333c100.267-100.267 262.4-100.267 362.667 0s100.267 262.4 0 362.667zM512 887.467c-234.667 0-426.667-192-426.667-426.667s192-426.667 426.667-426.667 426.667 192 426.667 426.667-192 426.667-426.667 426.667zM512 119.467c-187.733 0-341.333 153.6-341.333 341.333s153.6 341.333 341.333 341.333 341.333-153.6 341.333-341.333-153.6-341.333-341.333-341.333z" />
<glyph unicode="&#xe919;" glyph-name="skill-level" d="M864 691.2c-34.133 32-76.8 49.067-121.6 51.2-46.933 85.333-136.533 138.667-232.533 138.667s-185.6-55.467-232.533-140.8c-40.533-2.133-81.067-21.333-115.2-53.333-46.933-44.8-76.8-108.8-76.8-172.8 0-102.4 64-189.867 157.867-217.6v-260.267h531.2v260.267c96 25.6 164.267 115.2 164.267 219.733 0 66.133-27.733 132.267-74.667 174.933zM307.2 102.4v49.067h403.2v-49.067h-403.2zM738.133 356.267l-27.733-4.267v-136.533h-64v40.533c0 17.067-14.933 32-32 32s-32-14.933-32-32v-40.533h-55.467v96c0 17.067-14.933 32-32 32s-32-14.933-32-32v-96h-59.733v140.8c0 17.067-14.933 32-32 32s-32-14.933-32-32v-140.8h-32v136.533l-27.733 4.267c-74.667 12.8-130.133 78.933-130.133 160 0 46.933 21.333 93.867 55.467 125.867 27.733 25.6 57.6 38.4 89.6 36.267l21.333-2.133 8.533 21.333c34.133 74.667 104.533 121.6 183.467 121.6 76.8 0 149.333-46.933 183.467-121.6l8.533-21.333 23.467 2.133c44.8 4.267 76.8-17.067 96-34.133 34.133-32 55.467-78.933 55.467-128 0-81.067-57.6-151.467-136.533-160z" />
<glyph unicode="&#xe91a;" glyph-name="star" d="M516.267 889.6l93.867-290.133c0-2.133 2.133-2.133 4.267-2.133h305.067c4.267 0 6.4-4.267 2.133-8.533l-245.333-179.2c-2.133-2.133-2.133-2.133-2.133-4.267l93.867-288c2.133-4.267-2.133-6.4-6.4-4.267l-245.333 179.2c-2.133 2.133-4.267 2.133-4.267 0l-245.333-179.2c-4.267-2.133-8.533 0-6.4 4.267l93.867 290.133c0 2.133 0 4.267-2.133 4.267l-247.467 179.2c-4.267 2.133-2.133 8.533 2.133 8.533h305.067c2.133 0 4.267 2.133 4.267 2.133l93.867 290.133c0 2.133 4.267 2.133 6.4-2.133z" />
<glyph unicode="&#xe91b;" glyph-name="bullet" d="M669.867 494.933l-4.267 14.933-10.667 21.333-8.533 12.8-14.933 17.067-12.8 10.667-19.2 12.8-14.933 8.533-21.333 6.4-14.933 4.267-25.6 2.133h-14.933l-25.6-2.133-14.933-4.267-23.467-6.4-14.933-6.4-19.2-14.933-12.8-10.667-12.8-17.067-8.533-12.8-10.667-21.333-4.267-14.933-4.267-25.6v-14.933l4.267-25.6 4.267-14.933 10.667-21.333 8.533-12.8 14.933-17.067 12.8-10.667 21.333-12.8 14.933-6.4 23.467-6.4 14.933-4.267 25.6-2.133h14.933l25.6 2.133 14.933 2.133 23.467 8.533 14.933 6.4 19.2 14.933 12.8 10.667 14.933 19.2 8.533 12.8 8.533 21.333 4.267 14.933 2.133 25.6v14.933l-6.4 21.333zM480 552.533v0l4.267 2.133h2.133l-2.133-2.133h-4.267zM467.2 544l4.267 2.133v-4.267l-6.4-2.133-6.4 2.133 8.533 2.133zM467.2 499.2v-6.4l-2.133-2.133h-2.133v4.267l4.267 4.267zM445.867 460.8v0l2.133 4.267v2.133h4.267l2.133-2.133v-4.267l-6.4-6.4-4.267 2.133 2.133 4.267zM445.867 482.133v2.133h6.4v-14.933l-4.267 6.4-2.133 6.4zM456.533 497.067l-2.133-2.133h-2.133v4.267l4.267 2.133h4.267l-4.267-4.267zM452.267 520.533v0h2.133v-2.133h-2.133v2.133zM445.867 533.333v0 0l2.133 2.133v-2.133l-2.133-2.133h-2.133v2.133h2.133zM437.333 518.4l6.4 2.133 4.267-4.267v-10.667l-2.133-6.4v-6.4l-4.267 8.533-2.133 8.533-2.133 4.267v4.267zM443.733 477.867v0l-2.133-6.4-2.133-4.267h-8.533l4.267 6.4 2.133 6.4v2.133h4.267l2.133-4.267zM433.067 499.2v0-17.067h-6.4l4.267 4.267v2.133l-2.133 2.133 4.267 8.533zM426.667 460.8v0-4.267h-4.267v6.4l4.267-2.133zM426.667 533.333l2.133-2.133v-4.267h-4.267l-2.133 4.267 4.267 2.133zM420.267 512v0l4.267 2.133v2.133l4.267 2.133-2.133-6.4-4.267-4.267-2.133-4.267v-6.4l-2.133-6.4v-4.267l-2.133 4.267v6.4l4.267 6.4 4.267 4.267-4.267 4.267zM411.733 520.533l2.133 2.133 2.133-4.267-4.267-6.4-4.267 2.133v2.133l4.267 4.267zM401.067 482.133v6.4h4.267v-4.267l-4.267-2.133zM390.4 467.2l2.133 8.533 2.133 6.4v-4.267l2.133-4.267 4.267-6.4v-8.533h-6.4v8.533zM409.6 437.333v0-10.667h-4.267l-4.267 2.133-2.133 2.133v2.133l-6.4 6.4v2.133l2.133 2.133 2.133-2.133h4.267l2.133 2.133 6.4-6.4zM409.6 465.067v0 10.667h2.133v-4.267l-2.133-6.4zM409.6 448l2.133 2.133h2.133l2.133-2.133 4.267-8.533h4.267l4.267-4.267v-2.133h-2.133l-6.4 6.4v4.267h-6.4l-4.267 4.267zM435.2 411.733v0l2.133-4.267-2.133-2.133h-2.133v6.4h2.133zM418.133 418.133v0l-2.133-2.133-4.267 4.267v4.267h4.267v4.267h2.133l2.133-2.133v-6.4l2.133-2.133h-4.267zM445.867 377.6h-6.4l-4.267 2.133-6.4 6.4v2.133l-4.267 6.4v4.267l-2.133 2.133v2.133h2.133v-2.133l2.133-2.133 4.267-2.133h8.533v-8.533l-2.133-2.133v-2.133l2.133-2.133 6.4-4.267zM458.667 381.867h-2.133v2.133l2.133 2.133h4.267v-4.267h-4.267zM467.2 424.533v0h-4.267l-2.133 2.133v2.133h4.267l2.133-2.133v-2.133zM458.667 439.467v0 0 0h2.133v-4.267l-2.133 4.267zM465.067 450.133v0l-8.533-4.267-2.133-2.133-4.267-2.133v-2.133l2.133-2.133h2.133v-2.133l-2.133-2.133h-8.533l-2.133 4.267v6.4h-4.267v-4.267h-2.133l-4.267 4.267h-2.133v10.667l2.133 2.133 6.4-8.533h8.533l2.133-2.133h6.4l4.267 2.133v12.8h10.667l2.133-10.667-2.133 2.133-4.267-2.133zM488.533 390.4v0h-4.267v-4.267l-6.4-14.933v-2.133h-4.267v2.133l-4.267 4.267 2.133 2.133h2.133l4.267 4.267v8.533l2.133 2.133h2.133l6.4-2.133zM492.8 405.333h-4.267v4.267h4.267v-4.267zM501.333 356.267v0l-4.267-2.133v4.267h2.133l2.133-2.133zM512 373.333v0h-4.267l-10.667 2.133v8.533l4.267-2.133v-2.133l6.4-2.133 4.267-4.267zM516.267 392.533h-4.267l2.133 2.133h2.133v-2.133zM520.533 411.733v0 0l-2.133 2.133v4.267h2.133v-6.4zM531.2 366.933v0l-2.133 2.133v2.133h2.133v-4.267zM558.933 379.733v0l-4.267-2.133-4.267 2.133 6.4 2.133 2.133-2.133z" />
<glyph unicode="&#xe91c;" glyph-name="google-plus" d="M74.667 475.733c2.133 142.933 134.4 268.8 277.333 264.533 68.267 2.133 132.267-25.6 185.6-68.267-23.467-25.6-44.8-49.067-70.4-72.533-64 42.667-153.6 55.467-215.467 6.4-89.6-61.867-93.867-209.067-8.533-277.333 85.333-76.8 243.2-38.4 266.667 78.933-53.333 0-106.667 0-157.867 2.133 0 32 0 64 0 93.867 87.467 0 177.067 0 264.533 0 4.267-74.667-4.267-153.6-51.2-215.467-68.267-98.133-206.933-125.867-315.733-83.2-106.667 38.4-183.467 153.6-174.933 270.933zM789.333 501.333c-25.6 0-53.333 0-78.933 0 0-25.6 0-53.333 0-78.933 25.6 0 53.333 0 78.933 0 0-25.6 0-53.333 0-78.933 25.6 0 53.333 0 78.933 0 0 25.6 0 53.333 0 78.933 25.6 0 53.333 0 78.933 0 0 25.6 0 53.333 0 78.933-25.6 0-53.333 0-78.933 0 0 25.6 0 53.333 0 78.933-25.6 0-53.333 0-78.933 0 0-25.6 0-53.333 0-78.933z" />
<glyph unicode="&#xe91d;" glyph-name="video-play-full" d="M512 887.467c-234.667 0-426.667-192-426.667-426.667s192-426.667 426.667-426.667 426.667 192 426.667 426.667-192 426.667-426.667 426.667z" />
<glyph unicode="&#xe91e;" glyph-name="phone" d="M554.667 588.8h-85.333v-85.333h85.333v85.333zM725.333 588.8h-85.333v-85.333h85.333v85.333zM853.333 311.467c-53.333 0-104.533 8.533-151.467 23.467-14.933 4.267-32 2.133-42.667-10.667l-93.867-93.867c-121.6 61.867-219.733 160-281.6 281.6l93.867 93.867c12.8 10.667 14.933 27.733 10.667 42.667-17.067 49.067-25.6 100.267-25.6 153.6 0 23.467-19.2 42.667-42.667 42.667h-149.333c-23.467 0-42.667-19.2-42.667-42.667 0-401.067 324.267-725.333 725.333-725.333 23.467 0 42.667 19.2 42.667 42.667v149.333c0 23.467-19.2 42.667-42.667 42.667zM810.667 588.8v-85.333h85.333v85.333h-85.333z" />
<glyph unicode="&#xe91f;" glyph-name="servings" d="M908.8 522.667c0 25.6-14.933 51.2-170.667 66.133 38.4 87.467 57.6 172.8 34.133 209.067-8.533 14.933-25.6 21.333-40.533 19.2-34.133-4.267-78.933-78.933-130.133-219.733-27.733 0-57.6 2.133-87.467 2.133-100.267 0-192-4.267-264.533-14.933-96-12.8-132.267-29.867-132.267-61.867 0-10.667 4.267-21.333 14.933-27.733-2.133-140.8 36.267-256 108.8-332.8 66.133-68.267 157.867-102.4 273.067-102.4s206.933 34.133 273.067 102.4c72.533 74.667 108.8 189.867 108.8 332.8 8.533 8.533 12.8 17.067 12.8 27.733zM817.067 522.667c-27.733-6.4-66.133-10.667-117.333-14.933 4.267 8.533 10.667 19.2 14.933 27.733 44.8-2.133 78.933-6.4 102.4-12.8zM729.6 750.933c-2.133-44.8-29.867-145.067-96-245.333-2.133 0-6.4 0-8.533 0 34.133 98.133 78.933 204.8 104.533 245.333zM514.133 544c23.467 0 44.8 0 68.267 0-4.267-12.8-8.533-27.733-14.933-40.533-17.067 0-34.133 0-53.333 0-145.067 0-247.467 10.667-300.8 21.333 53.333 8.533 155.733 19.2 300.8 19.2zM748.8 200.533c-55.467-57.6-132.267-85.333-232.533-85.333s-179.2 29.867-232.533 85.333c-57.6 59.733-91.733 155.733-93.867 273.067 17.067-4.267 38.4-8.533 64-10.667 70.4-8.533 164.267-14.933 264.533-14.933s192 4.267 264.533 14.933c25.6 4.267 46.933 6.4 64 10.667-8.533-117.333-40.533-213.333-98.133-273.067z" />
<glyph unicode="&#xe920;" glyph-name="instagram" d="M512 789.872c107.248 0 119.836-0.478 162.224-2.392 39.201-1.752 60.396-8.288 74.58-13.864 18.804-7.332 32.191-15.936 46.212-29.96s22.788-27.408 29.96-46.212c5.419-14.184 12.112-35.376 13.864-74.58 1.912-42.388 2.392-54.979 2.392-162.224s-0.478-119.836-2.392-162.224c-1.752-39.201-8.288-60.396-13.864-74.58-7.332-18.804-15.936-32.191-29.96-46.212s-27.408-22.788-46.212-29.96c-14.184-5.419-35.376-12.112-74.58-13.864-42.388-1.912-54.979-2.392-162.224-2.392s-119.836 0.478-162.224 2.392c-39.201 1.752-60.396 8.288-74.58 13.864-18.804 7.332-32.191 15.936-46.212 29.96s-22.788 27.408-29.96 46.212c-5.419 14.184-12.112 35.376-13.864 74.58-1.912 42.388-2.392 54.979-2.392 162.224s0.478 119.836 2.392 162.224c1.752 39.201 8.288 60.396 13.864 74.58 7.332 18.804 15.936 32.191 29.96 46.212s27.408 22.788 46.212 29.96c14.184 5.419 35.376 12.112 74.58 13.864 42.388 2.072 54.979 2.392 162.224 2.392zM512 862.22c-109 0-122.704-0.478-165.572-2.392-42.708-1.912-71.87-8.764-97.368-18.644-26.452-10.2-48.764-24.064-71.072-46.372s-36.016-44.78-46.372-71.072c-9.88-25.496-16.732-54.66-18.644-97.528-1.912-42.708-2.392-56.412-2.392-165.412s0.478-122.704 2.392-165.572c1.912-42.708 8.764-71.87 18.644-97.528 10.2-26.452 24.064-48.764 46.372-71.072s44.78-36.016 71.072-46.372c25.496-9.88 54.66-16.732 97.528-18.644s56.412-2.392 165.572-2.392 122.704 0.478 165.572 2.392c42.708 1.912 71.87 8.764 97.528 18.644 26.452 10.2 48.764 24.064 71.072 46.372s36.016 44.78 46.372 71.072c9.88 25.496 16.732 54.66 18.644 97.528s2.392 56.412 2.392 165.572-0.478 122.704-2.392 165.572c-1.912 42.708-8.764 71.87-18.644 97.528-10.2 26.452-24.064 48.764-46.372 71.072s-44.78 36.016-71.072 46.372c-25.496 9.88-54.66 16.732-97.528 18.644-43.028 1.752-56.732 2.232-165.732 2.232v0zM512 667.008c-113.78 0-206.208-92.268-206.208-206.208s92.428-206.208 206.208-206.208 206.208 92.428 206.208 206.208-92.428 206.208-206.208 206.208zM512 326.94c-73.94 0-133.86 59.919-133.86 133.86s59.919 133.86 133.86 133.86 133.86-59.919 133.86-133.86-59.919-133.86-133.86-133.86zM774.46 675.136c0-26.578-21.546-48.125-48.125-48.125s-48.125 21.546-48.125 48.125c0 26.578 21.546 48.125 48.125 48.125s48.125-21.546 48.125-48.125z" />
<glyph unicode="&#xe921;" glyph-name="cooling" d="M928 460.8c0 17.067-14.933 32-32 32h-42.667l38.4 38.4c12.8 12.8 12.8 32 0 44.8s-32 12.8-44.8 0l-83.2-83.2h-172.8l119.467 119.467h121.6c17.067 0 32 14.933 32 32s-14.933 29.867-32 29.867h-57.6l32 32c12.8 12.8 12.8 32 0 44.8s-32 12.8-44.8 0l-29.867-29.867v55.467c0 17.067-14.933 32-32 32s-32-14.933-32-32v-117.333l-121.6-121.6v166.4l87.467 87.467c12.8 12.8 12.8 32 0 44.8s-32 12.8-44.8 0l-40.533-40.533v44.8c0 17.067-14.933 32-32 32s-32-14.933-32-32v-42.667l-38.4 38.4c-12.8 12.8-32 12.8-44.8 0s-17.067-34.133-4.267-46.933l83.2-83.2v-168.533l-117.333 119.467v119.467c0 17.067-14.933 32-32 32s-32-14.933-32-32v-53.333l-29.867 29.867c-12.8 12.8-32 12.8-44.8 0s-12.8-32 0-44.8l32-32h-59.733c-17.067 0-32-14.933-32-32s14.933-34.133 32-34.133h121.6l119.467-119.467h-172.8l-83.2 83.2c-12.8 12.8-32 12.8-44.8 0s-12.8-32 0-44.8l38.4-38.4h-42.667c-17.067 0-32-14.933-32-32s14.933-32 32-32h44.8l-40.533-40.533c-12.8-12.8-12.8-32 0-44.8 6.4-6.4 14.933-8.533 23.467-8.533s17.067 2.133 23.467 8.533l87.467 87.467h166.4l-121.6-121.6h-119.467c-17.067 0-32-14.933-32-32s14.933-32 32-32h53.333l-29.867-29.867c-12.8-12.8-12.8-32 0-44.8 6.4-6.4 14.933-8.533 23.467-8.533s17.067 2.133 23.467 8.533l32 32v-59.733c0-17.067 14.933-32 32-32s32 14.933 32 32v121.6l117.333 117.333v-172.8l-83.2-83.2c-12.8-12.8-12.8-32 0-44.8 6.4-6.4 14.933-8.533 23.467-8.533s17.067 2.133 23.467 8.533l38.4 38.4v-42.667c0-17.067 14.933-32 32-32s32 14.933 32 32v44.8l40.533-40.533c12.8-12.8 32-12.8 44.8 0s12.8 32 0 44.8l-87.467 87.467v172.8l121.6-121.6v-121.6c0-17.067 14.933-32 32-32s32 14.933 32 32v57.6l32-32c6.4-6.4 14.933-8.533 23.467-8.533s17.067 2.133 23.467 8.533c12.8 12.8 12.8 32 0 44.8l-29.867 29.867h53.333c17.067 0 32 14.933 32 32s-14.933 32-32 32h-117.333l-121.6 121.6h166.4l87.467-87.467c6.4-6.4 14.933-8.533 23.467-8.533s17.067 2.133 23.467 8.533c12.8 12.8 12.8 32 0 44.8l-40.533 40.533h42.667c17.067 4.267 32 17.067 32 36.267z" />
<glyph unicode="&#xe922;" glyph-name="contrast" d="M149.962 810.040c-47.008-47.008-83.919-101.758-109.708-162.732-26.71-63.151-40.254-130.206-40.254-199.307s13.544-136.156 40.254-199.307c25.79-60.976 62.701-115.726 109.708-162.732 47.008-47.007 101.758-83.92 162.732-109.708 63.15-26.71 130.205-40.252 199.306-40.252s136.156 13.542 199.307 40.254c60.974 25.789 115.726 62.703 162.732 109.709 47.008 47.008 83.92 101.757 109.708 162.732 26.71 63.149 40.252 130.204 40.252 199.305s-13.542 136.156-40.254 199.307c-25.79 60.974-62.703 115.725-109.709 162.732-47.008 47.007-101.757 83.919-162.732 109.708-63.149 26.709-130.204 40.252-199.305 40.252s-136.156-13.544-199.307-40.254c-60.973-25.789-115.725-62.7-162.731-109.707zM512 22.002c-113.788 0-220.765 44.312-301.226 124.772s-124.772 187.438-124.772 301.226 44.312 220.765 124.772 301.226c80.46 80.46 187.438 124.772 301.226 124.772v-851.996z" />
<glyph unicode="&#xe923;" glyph-name="prizes" d="M566.56 256.48v53.12c44 10.24 83.68 32.64 115.52 63.52 0.16-0.48 0.32-0.8 0.32-0.8 87.36 88.96 233.76 218.080 233.76 324.96 0 101.92-69.44 165.28-157.28 170.88v58.4h-493.76v-56c-88.64-4.8-157.28-68.32-157.28-171.040 0-106.88 146.4-236 233.76-327.2 0 0 0 0.16 0.16 0.32 32.32-31.2 72.8-53.6 117.76-63.52v-52.64c0-13.28 0-26.72-4.32-40-13.12-60.16-61.12-109.12-120.16-122.4-7.84-1.28-14.88-2.72-22.080-3.52h-34.080v-111.36h469.76v111.36h-39.52c-79.52 8.96-142.56 80.64-142.56 165.92zM758.88 780.96c26.080-3.36 69.92-18.88 69.92-83.84 0-30.24-31.36-75.36-69.92-120.48v204.32zM265.12 575.52c-39.52 45.76-72 93.12-72 123.84-0.16 66.88 46.24 81.28 72 84v-207.84z" />
<glyph unicode="&#xe924;" glyph-name="list" d="M52.068 903.376h-34.712c-9.585 0-17.356 7.771-17.356 17.356v0 34.712c0 9.585 7.771 17.356 17.356 17.356v0h34.712c9.585 0 17.356-7.771 17.356-17.356v0-34.712c0-9.585-7.771-17.356-17.356-17.356v0zM52.068-51.2h-34.712c-9.585 0-17.356 7.771-17.356 17.356v0 34.712c0 9.585 7.771 17.356 17.356 17.356v0h34.712c9.585 0 17.356-7.771 17.356-17.356v0-34.712c0-9.585-7.771-17.356-17.356-17.356v0zM52.068 269.885h-34.712c-9.585 0-17.356 7.771-17.356 17.356v0 34.712c0 9.585 7.771 17.356 17.356 17.356v0h34.712c9.585 0 17.356-7.771 17.356-17.356v0-34.712c0-9.585-7.771-17.356-17.356-17.356v0zM52.068 590.969h-34.712c-9.585 0-17.356 7.771-17.356 17.356v0 34.712c0 9.585 7.771 17.356 17.356 17.356v0h34.712c9.585 0 17.356-7.771 17.356-17.356v0-34.712c0-9.585-7.771-17.356-17.356-17.356v0zM1006.644 903.376h-815.729c-9.585 0-17.356 7.771-17.356 17.356v0 34.712c0 9.585 7.771 17.356 17.356 17.356v0h815.729c9.585 0 17.356-7.771 17.356-17.356v0-34.712c0-9.585-7.771-17.356-17.356-17.356v0zM1006.644 590.969h-815.729c-9.585 0-17.356 7.771-17.356 17.356v0 34.712c0 9.585 7.771 17.356 17.356 17.356v0h815.729c9.585 0 17.356-7.771 17.356-17.356v0-34.712c0-9.585-7.771-17.356-17.356-17.356v0zM1006.644 269.885h-815.729c-9.585 0-17.356 7.771-17.356 17.356v0 34.712c0 9.585 7.771 17.356 17.356 17.356v0h815.729c9.585 0 17.356-7.771 17.356-17.356v0-34.712c0-9.585-7.771-17.356-17.356-17.356v0zM1006.644-51.2h-815.729c-9.585 0-17.356 7.771-17.356 17.356v0 34.712c0 9.585 7.771 17.356 17.356 17.356v0h815.729c9.585 0 17.356-7.771 17.356-17.356v0-34.712c0-9.585-7.771-17.356-17.356-17.356v0z" />
<glyph unicode="&#xe925;" glyph-name="grid" d="M399.186 521.546h-347.119c-28.756 0-52.068 23.312-52.068 52.068v0 347.119c0 28.756 23.312 52.068 52.068 52.068v0h347.119c28.756 0 52.068-23.312 52.068-52.068v0-347.119c0-28.756-23.312-52.068-52.068-52.068v0zM69.424 590.969h312.407v312.407h-312.407zM971.932 521.546h-347.119c-28.756 0-52.068 23.312-52.068 52.068v0 347.119c0 28.756 23.312 52.068 52.068 52.068v0h347.119c28.756 0 52.068-23.312 52.068-52.068v0-347.119c0-28.756-23.312-52.068-52.068-52.068v0zM642.169 590.969h312.407v312.407h-312.407zM971.932-51.2h-347.119c-28.756 0-52.068 23.312-52.068 52.068v0 347.119c0 28.756 23.312 52.068 52.068 52.068v0h347.119c28.756 0 52.068-23.312 52.068-52.068v0-347.119c0-28.756-23.312-52.068-52.068-52.068v0zM642.169 18.224h312.407v312.407h-312.407zM399.186-51.2h-347.119c-28.756 0-52.068 23.312-52.068 52.068v0 347.119c0 28.756 23.312 52.068 52.068 52.068v0h347.119c28.756 0 52.068-23.312 52.068-52.068v0-347.119c0-28.756-23.312-52.068-52.068-52.068v0zM69.424 18.224h312.407v312.407h-312.407z" />
<glyph unicode="&#xe926;" glyph-name="icon_scroll" horiz-adv-x="921" d="M733.5 235.271v249.871c0 37.636-4.949 74.927-19.336 110.031-21.983 53.634-58.814 98.636-107.614 130.172-34.528 22.328-74.812 36.14-115.901 40.629-2.072 47.995-10.819 95.759-31.076 139.61-6.791 14.272-15.308 27.162-25.206 39.708-3.683 4.604-7.596 9.208-12.085 12.891-2.302 1.957-4.719 3.683-7.136 5.525-14.042 10.589-36.025 2.302-44.081-11.509-4.374-7.481-5.525-16.459-3.223-24.861 2.417-8.862 7.826-13.926 14.847-19.221-13.351 10.128-2.762 1.842 0.345-1.496 1.036-1.151 2.072-2.302 3.108-3.453 0.345-0.345 0.575-0.691 0.921-1.151 2.532-3.453 4.834-7.021 7.021-10.589 3.338-5.409 6.215-11.049 8.977-16.689 0.691-1.496 1.496-3.108 2.187-4.604 0.115-0.115 0.115-0.23 0.23-0.46 1.381-3.568 2.762-7.136 4.028-10.819 6.676-18.876 10.934-38.557 13.926-58.353 1.381-11.74 2.417-23.479 2.877-35.334-52.138-6.791-100.248-28.428-141.222-61.921-42.585-34.874-73.431-84.48-87.817-137.423-8.287-30.27-9.438-61.115-9.438-92.191v-202.107c0-22.789-0.806-45.808 2.072-68.482 4.028-30.73 12.2-59.274 25.436-87.357 11.625-24.745 27.968-47.534 46.613-67.676 37.406-40.398 88.738-69.057 142.603-79.991 59.159-12.085 119.469-4.259 174.024 21.062 49.606 23.019 91.731 63.187 118.893 110.491 23.594 40.974 35.795 88.278 36.025 135.697 0-0.115 0-0.115 0 0zM627.037 620.494c0.921-1.151 1.496-1.842 0 0v0zM541.292 687.134c-5.409 2.187-2.072 0.806 0 0v0zM334.811 661.123c1.036 0.806 1.726 1.266 0 0v0zM268.056 575.262c-2.187-5.409-0.806-2.072 0 0v0zM294.068 109.357c-0.806 1.036-1.266 1.611 0 0v0zM379.813 42.602c5.64-2.302 2.187-0.806 0 0v0zM586.409 68.614c-1.036-0.806-1.726-1.381 0 0v0zM653.049 154.36c2.302 5.525 0.921 2.187 0 0v0zM667.321 206.498c-1.726-11.164-4.259-22.098-7.481-32.917-1.726-5.87-3.798-11.74-6.1-17.494-0.345-0.806-0.575-1.496-0.921-2.302-1.381-3.223-2.992-6.445-4.489-9.553-5.64-11.394-12.2-22.213-19.566-32.457-0.691-1.036-2.647-3.568-3.683-4.949s-2.187-2.647-3.338-4.028c-4.259-5.064-8.632-9.783-13.236-14.502-4.259-4.259-8.632-8.402-13.236-12.315-2.187-1.957-4.489-3.798-6.791-5.755-1.036-0.806-2.187-1.611-3.223-2.417-10.243-7.481-21.062-13.926-32.342-19.681-2.762-1.381-5.525-2.647-8.287-4.028-1.036-0.46-2.072-0.921-2.992-1.381-5.87-2.417-11.855-4.489-17.955-6.33-11.279-3.568-22.789-6.1-34.413-7.942-19.106-2.187-38.327-2.187-57.432 0-11.164 1.726-22.098 4.259-32.917 7.481-5.87 1.726-11.74 3.798-17.494 6.1-0.806 0.345-1.496 0.575-2.302 0.921-3.223 1.381-6.445 2.992-9.553 4.489-11.394 5.64-22.213 12.2-32.457 19.566-1.036 0.691-3.568 2.647-4.949 3.683s-2.647 2.187-4.028 3.338c-5.064 4.259-9.783 8.632-14.502 13.236-4.259 4.259-8.402 8.632-12.315 13.236-1.957 2.187-3.798 4.489-5.755 6.791-0.806 1.036-1.611 2.072-2.417 3.223-7.481 10.243-13.926 21.062-19.681 32.342-1.381 2.762-2.647 5.525-4.028 8.287-0.46 1.036-0.921 1.957-1.381 2.992-2.417 5.87-4.489 11.855-6.445 17.955-3.568 11.394-6.215 23.134-8.057 34.989-2.417 21.408-1.611 43.161-1.611 64.683v194.28c0 18.991-0.46 37.866 1.611 56.742 1.726 11.279 4.259 22.444 7.596 33.493 1.726 5.87 3.798 11.74 6.1 17.494 0.345 0.806 0.575 1.496 0.921 2.302 1.381 3.223 2.992 6.445 4.489 9.553 5.64 11.279 12.2 22.213 19.566 32.457 0.691 1.036 2.647 3.568 3.683 4.949s2.187 2.647 3.338 4.028c4.259 5.064 8.632 9.783 13.236 14.502 4.259 4.259 8.632 8.402 13.236 12.315 2.187 1.957 4.489 3.798 6.906 5.755 1.036 0.806 2.072 1.611 3.223 2.417 10.243 7.481 21.062 13.926 32.342 19.681 2.762 1.381 5.525 2.647 8.287 4.028 1.036 0.46 2.072 0.921 2.992 1.381 5.87 2.417 11.855 4.489 17.955 6.33 11.279 3.568 22.789 6.1 34.413 7.942 19.106 2.187 38.327 2.187 57.432 0 11.164-1.726 22.098-4.259 32.917-7.481 5.87-1.726 11.74-3.798 17.494-6.1 0.806-0.345 1.496-0.575 2.302-0.921 3.223-1.381 6.445-2.992 9.553-4.489 11.394-5.64 22.213-12.2 32.457-19.566 1.036-0.691 3.568-2.647 4.949-3.683s2.647-2.187 4.028-3.338c5.064-4.259 9.783-8.632 14.502-13.236 4.259-4.259 8.402-8.632 12.315-13.236 1.957-2.187 3.798-4.489 5.755-6.791 0.806-1.036 1.611-2.187 2.417-3.223 7.481-10.243 13.926-21.062 19.681-32.342 1.381-2.762 2.647-5.525 4.028-8.287 0.46-1.036 0.921-1.957 1.381-2.992 2.417-5.87 4.489-11.855 6.445-17.955 3.568-11.394 6.215-23.134 8.057-34.989 2.417-21.408 1.611-43.161 1.611-64.683v-222.939c-0.115-9.668-0.806-19.221-1.842-28.659zM460.61 616.006c-17.61 0-32.227-14.617-32.227-32.227v-107.269c0-17.61 14.617-32.227 32.227-32.227s32.227 14.617 32.227 32.227v107.269c0 17.494-14.617 32.227-32.227 32.227z" />
<glyph unicode="&#xe927;" glyph-name="deaf_3" d="M590.293 365.227c-8.545-0.386-16.556-2.231-23.935-5.292l0.468 0.172c-6.961-2.238-11.916-8.643-11.947-16.21v-0.004c0.464-7.211 5.398-13.155 12.041-15.116l0.119-0.030c6.223-2.454 13.431-3.876 20.972-3.876 0.727 0 1.452 0.013 2.173 0.039l-0.104-0.003h251.733c5.513 0.315 11.962 0.495 18.453 0.495s12.94-0.18 19.343-0.534l-0.889 0.039c6.604-1.252 12.398-2.95 17.945-5.138l-0.665 0.231c13.719-2.786 23.899-14.749 23.899-29.090 0-0.198-0.002-0.396-0.006-0.593v0.030c0.097-0.983 0.152-2.125 0.152-3.28 0-14.525-8.745-27.008-21.257-32.471l-0.228-0.089c-6.803-2.608-14.673-4.118-22.896-4.118-1.026 0-2.047 0.024-3.061 0.070l0.144-0.005h-249.6c-0.821 0.031-1.785 0.048-2.754 0.048-10.293 0-20.125-1.976-29.137-5.568l0.531 0.187c-9.173-3.84-13.653-9.6-13.013-16.64s6.827-12.373 14.080-15.147c5.778-2.048 12.442-3.232 19.382-3.232 0.686 0 1.37 0.012 2.050 0.035l-0.099-0.003h196.48c9.387 0 18.987 0 28.373 0 0.954 0.104 2.060 0.163 3.18 0.163 15.981 0 29.152-12.036 30.94-27.538l0.014-0.144c0.702-2.659 1.105-5.711 1.105-8.857 0-16.974-11.73-31.208-27.525-35.039l-0.246-0.050c-5.031-1.242-10.807-1.954-16.749-1.954-0.787 0-1.571 0.012-2.351 0.037l0.114-0.003h-240.853c-0.468 0.015-1.018 0.023-1.57 0.023-7.124 0-13.917-1.42-20.111-3.991l0.348 0.128c-6.041-2.448-10.225-8.269-10.225-15.067 0-4.334 1.701-8.271 4.471-11.18l-0.006 0.007c6.652-6.093 15.552-9.826 25.324-9.826 1.45 0 2.881 0.082 4.288 0.242l-0.172-0.016h154.453c1.005 0.037 2.185 0.058 3.371 0.058 10.292 0 20.215-1.581 29.539-4.513l-0.697 0.189c12.431-2.567 21.747-13.12 22.397-25.96l0.003-0.067c0.401-1.993 0.63-4.285 0.63-6.63 0-13.931-8.093-25.972-19.834-31.678l-0.209-0.092c-7.704-3.284-16.666-5.193-26.074-5.193-1.109 0-2.212 0.027-3.308 0.079l0.155-0.006h-431.787c-6.376-0.391-13.828-0.615-21.333-0.615s-14.957 0.223-22.351 0.663l1.018-0.048c-70.324 4.979-128.905 50.386-152.977 112.924l-0.409 1.21c-10.804 24.801-17.090 53.695-17.090 84.056 0 1.124 0.009 2.246 0.026 3.366l-0.002-0.169c0.546 49.506 17.299 94.994 45.192 131.522l-0.392-0.535c24.107 32.213 46.72 65.707 69.973 98.56l135.68 192 3.413 4.267c19.556-6.122 33.5-24.076 33.5-45.287 0-0.279-0.002-0.557-0.007-0.835l0.001 0.042c0.019-0.939 0.029-2.045 0.029-3.154 0-21.885-4.161-42.798-11.734-61.991l0.398 1.145c-5.369-12.667-8.489-27.398-8.489-42.857 0-4.745 0.294-9.421 0.865-14.012l-0.056 0.548c2.523-23.403 21.107-41.767 44.392-43.932l0.195-0.015c5.722-0.964 12.314-1.515 19.035-1.515 0.808 0 1.614 0.008 2.418 0.024l-0.12-0.002h377.6c0.504 0.011 1.097 0.017 1.693 0.017 10.894 0 21.311-2.041 30.889-5.762l-0.582 0.199c12.634-4.472 21.522-16.316 21.522-30.236 0-1.223-0.069-2.429-0.202-3.616l0.013 0.146c0.012-0.322 0.019-0.701 0.019-1.081 0-13.5-8.893-24.922-21.14-28.729l-0.213-0.057c-6.307-2.468-13.603-4.011-21.225-4.264l-0.108-0.003zM691.413 452.693c-1.636-0.779-3.554-1.234-5.58-1.234-0.742 0-1.469 0.061-2.177 0.178l0.077-0.011h-239.147c-0.968-0.041-2.103-0.064-3.244-0.064-10.328 0-20.212 1.901-29.321 5.373l0.565-0.189c-14.283 5.629-24.653 18.342-26.853 33.692l-0.027 0.228c-0.624 3.73-0.981 8.027-0.981 12.408 0 8.837 1.452 17.335 4.131 25.268l-0.163-0.556c6.315 15.957 11.645 34.802 15.095 54.297l0.265 1.81c0.86 3.089 2.412 5.747 4.485 7.899l-0.005-0.006 180.267 247.68c6.254 9.044 13.285 16.889 21.181 23.764l0.152 0.129c6.090 6.244 14.586 10.116 23.986 10.116 4.1 0 8.028-0.737 11.659-2.085l-0.232 0.075c14.274-3.873 24.599-16.713 24.599-31.964 0-5.211-1.205-10.14-3.352-14.524l0.086 0.195c-5.353-12.234-11.931-22.779-19.798-32.212l0.172 0.212-125.013-170.667c-5.704-7.073-10.048-15.501-12.482-24.706l-0.105-0.467c-0.564-1.664-0.889-3.581-0.889-5.574 0-5.802 2.757-10.96 7.033-14.235l0.043-0.032c2.536-1.644 5.637-2.622 8.966-2.622 3.971 0 7.618 1.391 10.478 3.713l-0.031-0.024c6.884 4.423 12.635 9.97 17.15 16.444l0.13 0.196 161.493 222.080c6.045 8.863 13.097 16.458 21.127 22.881l0.206 0.159c5.182 5.043 12.267 8.154 20.079 8.154 6.789 0 13.029-2.349 17.952-6.278l-0.058 0.045c10.429-6.186 17.311-17.386 17.311-30.193 0-3.378-0.479-6.644-1.372-9.734l0.061 0.247c-2.47-8.166-6.188-15.267-10.993-21.486l0.113 0.152-149.333-203.093c-6.404-8.040-11.267-17.614-13.964-28.060l-0.116-0.527c-0.581-1.657-0.917-3.567-0.917-5.555 0-5.53 2.598-10.453 6.639-13.616l0.038-0.029c2.473-1.57 5.485-2.502 8.714-2.502 3.999 0 7.663 1.429 10.512 3.803l-0.026-0.021c7.101 4.551 13.006 10.32 17.572 17.069l0.135 0.211 128 176.213c1.92 2.56 3.627 4.907 5.547 7.253 5.744 7.564 14.744 12.399 24.872 12.399 4.101 0 8.018-0.793 11.604-2.233l-0.21 0.074c16.6-4.48 28.615-19.403 28.615-37.132 0-0.521-0.010-1.039-0.031-1.555l0.002 0.074c-1.454-10.894-5.804-20.569-12.242-28.477l0.082 0.104-134.187-183.68-9.387-12.587c-5.617-6.441-9.042-14.921-9.042-24.201 0-0.868 0.030-1.728 0.089-2.581l-0.006 0.115zM723.627 451.627l102.4 139.093c6.156 8.713 13.918 15.863 22.91 21.147l0.343 0.187c4.080 2.494 9.017 3.971 14.3 3.971 6.946 0 13.296-2.554 18.162-6.773l-0.034 0.029c10.144-6.246 16.805-17.291 16.805-29.891 0-1.193-0.060-2.373-0.176-3.536l0.012 0.147c-0.818-9.5-4.299-18.055-9.684-25.074l0.084 0.114-70.4-96.427c-1.493-2.133-2.773-4.267-5.973-4.267zM258.773 527.787l-64-91.733-21.333 61.227c-10.24 30.507-20.267 61.013-30.933 91.307-2.133 6.4 0 8.96 4.693 11.52 5.879 2.816 12.78 4.461 20.066 4.461 8.284 0 16.071-2.127 22.845-5.864l-0.244 0.124c18.962-10.509 34.58-24.898 46.208-42.194l0.299-0.472c7.265-10.609 14.625-19.866 22.578-28.571l-0.178 0.198zM758.827 354.133l-10.453-15.787c-1.493-2.347-3.627-1.707-5.76-1.707h-151.893c-3.746 0.069-7.336 0.61-10.754 1.565l0.3-0.072c-3.413 0-7.467 2.347-7.68 6.4s3.84 5.973 7.467 7.467c3.793 1.173 8.154 1.848 12.673 1.848 1.246 0 2.48-0.051 3.7-0.152l-0.16 0.011h162.56zM701.653 238.72l-10.24-15.573c-1.493-2.133-3.627-1.707-5.76-1.707h-74.453c-0.23-0.006-0.501-0.010-0.773-0.010-4.93 0-9.584 1.186-13.69 3.289l0.17-0.079c-5.547 2.987-5.76 7.467 0 10.88 4.253 2.444 9.351 3.885 14.786 3.885 0.577 0 1.151-0.016 1.72-0.048l-0.079 0.004h85.333zM641.067 125.867c-2.987-4.693-5.76-8.96-8.533-13.227-1.184-2.319-3.555-3.88-6.291-3.88-0.264 0-0.524 0.015-0.781 0.043l0.032-0.003h-40.96c-0.124-0.002-0.271-0.003-0.417-0.003-4.812 0-9.309 1.35-13.132 3.693l0.11-0.063c-4.267 2.773-4.267 5.973 0 9.173 2.777 2.459 6.431 3.983 10.439 4.053h0.014z" />
</font>
</defs>
</svg>
